# xmcd CD database file
#
# Track frame offsets:
#	150
#	4242
#	28962
#	51350
#	67882
#	100405
#	118367
#	132655
#	153682
#	174757
#	181942
#
# Disc length: 2733 seconds
#
# Revision: 0
# Processed by: cddbd v1.5.1PL0 Copyright (c) Steve Scherf et al.
# Submitted via: CDex 1.51
#
DISCID=9c0aab0b
DTITLE=山本剛トリオ - 気ままにいい夜
DYEAR=1989
DGENRE=Jazz
TTITLE0=クレオパトラの夢
TTITLE1=ラスト・タンゴ・イン・パリ
TTITLE2=NAJA
TTITLE3=MY LOVE
TTITLE4=P.S. I LOVE  YOU
TTITLE5=SWEET MAGIC MOMENTS
TTITLE6=GOIN' OUT OF MY HEAD
TTITLE7=AMERICAN HIT SONG
TTITLE8=LOVING TOUCH
TTITLE9=雪舞い
TTITLE10=クレオパトラの夢
EXTD=YEAR: 1989
EXTT0=
EXTT1=
EXTT2=
EXTT3=
EXTT4=
EXTT5=
EXTT6=
EXTT7=
EXTT8=
EXTT9=
EXTT10=
PLAYORDER=
